<svg xmlns="http://www.w3.org/2000/svg" xmlns:xlink="http://www.w3.org/1999/xlink" width="1em" height="1em" preserveAspectRatio="xMidYMid meet" viewBox="0 0 512 512" style="-ms-transform: rotate(360deg); -webkit-transform: rotate(360deg); transform: rotate(360deg);"><path fill="white" d="M136 488h359.985V24H16v464h120ZM408 56h55.985v40H408Zm0 72h55.985v40H408Zm0 72h55.985v40H408Zm0 72h55.985v40H408Zm0 72h55.985v40H408Zm0 72h55.985v40H408ZM136 200V56h239.985v184H136Zm0 216V272h239.985v184H136ZM48 56h56v40H48Zm0 72h56v40H48Zm0 72h56v40H48Zm0 72h56v40H48Zm0 72h56v40H48Zm0 72h56v40H48Z"/></svg>